<?xml version="1.0" encoding="UTF-8" standalone="no"?>
<!DOCTYPE svg PUBLIC "-//W3C//DTD SVG 1.1//EN" "http://www.w3.org/Graphics/SVG/1.1/DTD/svg11.dtd">
<svg height="100%" stroke-miterlimit="10" style="fill-rule:nonzero;clip-rule:evenodd;stroke-linecap:round;stroke-linejoin:round;" version="1.1" viewBox="0 0 502 502" width="100%" xml:space="preserve" xmlns="http://www.w3.org/2000/svg" xmlns:vectornator="http://vectornator.io" xmlns:xlink="http://www.w3.org/1999/xlink">
<defs/>
<g id="Untitled">
<path d="M245.406 35.8438C151.343 35.8438 74.8438 112.373 74.8438 206.438C74.8438 219.729 76.3917 232.972 79.4375 245.844C72.4742 253.866 67.29 262.45 64 271.375C61.2028 278.961 59.75 286.781 59.75 294.688C59.75 325.178 80.4194 353.031 117.938 373.125C125.571 377.216 133.813 380.841 142.438 384.094C139.648 397.474 134.031 424.375 134.031 424.375C134.031 424.375 136.173 462.062 181.375 462.062L244.875 474.969L308.375 462.062C353.577 462.062 355.719 424.375 355.719 424.375C355.719 424.375 350.12 397.634 347.375 384.469C356.374 381.124 364.973 377.376 372.906 373.125C410.422 353.031 431.062 325.177 431.062 294.688C431.062 286.944 429.685 279.284 427 271.844C423.72 262.752 418.49 254.005 411.406 245.844C414.451 232.972 416 219.728 416 206.438C416 112.374 339.469 35.8438 245.406 35.8438Z" fill="#000000" fill-rule="evenodd" opacity="1" stroke="none"/>
</g>
</svg>
