<svg width="42" height="42" viewBox="0 0 42 42" fill="none" xmlns="http://www.w3.org/2000/svg">
<path fill-rule="evenodd" clip-rule="evenodd" d="M6.51022 23.5049C6.4045 23.8819 6.35066 24.2657 6.35066 24.6555C6.35066 26.6851 7.82558 28.5932 10.5044 30.0275C13.1832 31.4628 16.7444 32.2534 20.5326 32.2534C24.3207 32.2534 27.882 31.4628 30.5608 30.0275C33.2396 28.5922 34.7145 26.6851 34.7145 24.6555C34.7145 24.3435 34.6798 24.0354 34.612 23.7314C29.8326 27.3797 20.4875 28.4824 20.4875 28.4824C15.019 28.4298 9.8585 25.7368 6.51022 23.5049Z" fill="#B5B5B5"/>
<path fill-rule="evenodd" clip-rule="evenodd" d="M30.5608 30.0276C27.882 31.4628 24.3207 32.2534 20.5326 32.2534C16.7444 32.2534 13.1832 31.4628 10.5044 30.0276C7.82558 28.5932 6.35066 26.6851 6.35066 24.6555C6.35066 24.2657 6.4045 23.8819 6.51022 23.5049C6.73344 22.7087 7.19059 21.9432 7.8787 21.2186L8.13803 20.9448L8.04168 20.5802C7.75624 19.5041 7.61127 18.3912 7.61127 17.2719C7.61127 10.1468 13.4074 4.35066 20.5326 4.35066C27.6577 4.35066 33.4539 10.1468 33.4539 17.2719C33.4539 18.3912 33.3089 19.5041 33.0235 20.5802L32.9271 20.9448L33.1864 21.2186C33.9395 22.0118 34.4163 22.8538 34.612 23.7314C34.6798 24.0354 34.7145 24.3435 34.7145 24.6555C34.7145 26.6851 33.2396 28.5923 30.5608 30.0276ZM35.7246 22.744C35.4501 21.9833 35.0127 21.2503 34.42 20.5675C34.6748 19.4906 34.8045 18.384 34.8045 17.2719C34.8045 9.4021 28.4024 3 20.5326 3C12.6627 3 6.26061 9.4021 6.26061 17.2719C6.26061 18.384 6.39028 19.4906 6.6451 20.5675C6.06252 21.2387 5.63049 21.9583 5.35522 22.705C5.1212 23.3397 5 23.994 5 24.6555C5 27.2065 6.72794 29.5368 9.86687 31.2179C12.7384 32.7568 16.5256 33.6041 20.5326 33.6041C24.5395 33.6041 28.3267 32.7568 31.1983 31.2179C34.3371 29.5368 36.0651 27.2065 36.0651 24.6555C36.0651 24.0076 35.9493 23.3665 35.7246 22.744Z" fill="#2B2B2B"/>
<path fill-rule="evenodd" clip-rule="evenodd" d="M32.9271 20.9448L33.0234 20.5802C33.3088 19.5041 33.4539 18.3912 33.4539 17.2719C33.4539 10.1468 27.6577 4.35065 20.5326 4.35065C13.4074 4.35065 7.61127 10.1468 7.61127 17.2719C7.61127 18.3912 7.75615 19.5041 8.04168 20.5802L8.13803 20.9448L7.87861 21.2186C7.19059 21.9432 6.73343 22.7087 6.51022 23.5049C9.85841 25.7368 15.019 28.4298 20.4875 28.4824C20.4875 28.4824 30.1222 28.2123 34.612 23.7314C34.4163 22.8538 33.9395 22.0118 33.1864 21.2186L32.9271 20.9448Z" fill="white"/>
<path d="M15.2746 38.1674L15.2253 38.1574H15.175C13.4518 38.1574 12.6186 37.4537 12.1937 36.807C11.9724 36.4704 11.8506 36.1307 11.7845 35.8737C11.7517 35.746 11.7332 35.6411 11.7231 35.5705C11.7211 35.5566 11.7195 35.544 11.7181 35.5329L11.739 35.4325L11.8423 34.9363L12.2132 33.157C12.5213 31.6798 12.9349 29.699 13.357 27.6845C14.2031 23.6455 15.0778 19.4969 15.2098 18.969C15.2161 18.9437 15.2224 18.9186 15.2286 18.8936C15.3639 18.3506 15.4814 17.8787 15.801 17.5087C16.1054 17.1562 16.6662 16.8265 17.8763 16.8265C18.4254 16.8265 18.8089 16.9826 19.0862 17.1902C19.3701 17.4029 19.5695 17.6904 19.7089 17.9861C19.8483 18.2817 19.9196 18.5685 19.9557 18.7567C19.9711 18.8372 19.9795 18.8965 19.9852 18.9361C19.9861 18.9424 19.9869 18.9482 19.9876 18.9535L19.9878 18.9544C19.9886 18.96 19.9919 18.9835 19.9968 19.0057C19.9982 19.0123 20.0023 19.0312 20.0098 19.0544C20.0133 19.0655 20.0212 19.0889 20.0345 19.1169L20.0351 19.1181C20.043 19.1349 20.08 19.2131 20.1615 19.2827C20.2102 19.3195 20.342 19.3813 20.4252 19.3989C20.5222 19.4014 20.6972 19.3561 20.7706 19.3141C20.8998 19.2248 20.9456 19.1025 20.9529 19.083C20.9532 19.0823 20.9534 19.0817 20.9535 19.0813C20.9764 19.0217 20.9823 18.9697 20.983 18.9634L20.9831 18.9629C20.9862 18.9378 20.9869 18.9163 20.987 18.9113L20.987 18.9108C20.9873 18.9023 20.9874 18.8944 20.9874 18.8886L20.9875 18.8477C20.9875 18.5137 20.9884 18.2284 21.0237 17.9709C21.0584 17.7182 21.1221 17.5294 21.2238 17.3839C21.4079 17.1204 21.8472 16.8265 23.0988 16.8265C24.3089 16.8265 24.8697 17.1562 25.1741 17.5087C25.4936 17.8787 25.6112 18.3506 25.7465 18.8936C25.7527 18.9186 25.759 18.9437 25.7653 18.969C25.8973 19.4969 26.772 23.6455 27.6181 27.6845C28.0402 29.699 28.4538 31.6798 28.7619 33.157L29.1328 34.9363L29.2361 35.4325L29.257 35.5329C29.2556 35.544 29.254 35.5566 29.252 35.5705C29.2419 35.6411 29.2234 35.746 29.1906 35.8737C29.1245 36.1307 29.0027 36.4704 28.7814 36.807C28.3565 37.4537 27.5233 38.1574 25.8001 38.1574H25.7498L25.7005 38.1674L20.4875 39.2276L15.2746 38.1674Z" fill="#FFC969" stroke="black"/>
<path fill-rule="evenodd" clip-rule="evenodd" d="M26.2504 18.8477C25.9802 17.7672 25.7101 16.3265 23.0988 16.3265C20.4875 16.3265 20.4875 17.5421 20.4875 18.8477C20.4875 19.3429 20.4875 16.3265 17.8763 16.3265C15.265 16.3265 14.9949 17.7672 14.7247 18.8477C14.4546 19.9282 11.213 35.5058 11.213 35.5058C11.213 35.5058 11.3931 38.6574 15.175 38.6574L20.4875 39.7379L25.8001 38.6574C29.582 38.6574 29.7621 35.5058 29.7621 35.5058C29.7621 35.5058 26.5205 19.9282 26.2504 18.8477Z" stroke="#2B2B2B" stroke-width="0.0234375" stroke-miterlimit="10"/>
<path fill-rule="evenodd" clip-rule="evenodd" d="M18.7698 21.2231C18.3884 21.4432 17.7343 21.0241 17.3086 20.2869C16.883 19.5496 16.8471 18.7735 17.2284 18.5534C17.6097 18.3332 18.2639 18.7524 18.6896 19.4896C19.1151 20.2268 19.151 21.0029 18.7698 21.2231Z" fill="#2B2B2B"/>
<path fill-rule="evenodd" clip-rule="evenodd" d="M22.2053 21.2231C22.5867 21.4432 23.2408 21.0241 23.6665 20.2869C24.0921 19.5496 24.128 18.7735 23.7467 18.5534C23.3654 18.3332 22.7112 18.7524 22.2856 19.4896C21.8599 20.2268 21.8241 21.0029 22.2053 21.2231Z" fill="#2B2B2B"/>
<path fill-rule="evenodd" clip-rule="evenodd" d="M12.6676 8.61736H10.9498V6.8996H12.6676V8.61736Z" fill="#DB0000"/>
<path fill-rule="evenodd" clip-rule="evenodd" d="M14.3854 8.61736H12.6676V6.8996H14.3854V8.61736Z" fill="#DB0000"/>
<path fill-rule="evenodd" clip-rule="evenodd" d="M16.1031 10.335H14.3854V8.61728H16.1031V10.335Z" fill="#ADADAD"/>
<path fill-rule="evenodd" clip-rule="evenodd" d="M16.1031 8.61736H14.3854V6.8996H16.1031V8.61736Z" fill="#DB0000"/>
<path fill-rule="evenodd" clip-rule="evenodd" d="M19.5386 8.61736H17.8208V6.8996H19.5386V8.61736Z" fill="#DB0000"/>
<path fill-rule="evenodd" clip-rule="evenodd" d="M12.6676 12.0529H10.9498V10.3351H12.6676V12.0529Z" fill="#CCCCCC"/>
<path fill-rule="evenodd" clip-rule="evenodd" d="M14.3854 12.0529H12.6676V10.3351H14.3854V12.0529Z" fill="#BF0000"/>
<path fill-rule="evenodd" clip-rule="evenodd" d="M10.9498 12.0529H9.23206V10.3351H10.9498V12.0529Z" fill="#BFBFBF"/>
<path fill-rule="evenodd" clip-rule="evenodd" d="M16.1031 12.0529H14.3854V10.3351H16.1031V12.0529Z" fill="#727272"/>
<path fill-rule="evenodd" clip-rule="evenodd" d="M14.3854 10.335H12.6676V8.61728H14.3854V10.335Z" fill="#BA0000"/>
<path fill-rule="evenodd" clip-rule="evenodd" d="M17.8209 8.61736H16.1031V6.8996H17.8209V8.61736Z" fill="#ADADAD"/>
<path fill-rule="evenodd" clip-rule="evenodd" d="M21.2564 8.61736H19.5387V6.8996H21.2564V8.61736Z" fill="#ADADAD"/>
<path fill-rule="evenodd" clip-rule="evenodd" d="M17.8209 12.0529H16.1031V10.3351H17.8209V12.0529Z" fill="#ADADAD"/>
<path fill-rule="evenodd" clip-rule="evenodd" d="M17.8209 10.335H16.1031V8.61728H17.8209V10.335Z" fill="#D1D1D1"/>
<path fill-rule="evenodd" clip-rule="evenodd" d="M12.6676 10.335H10.9498V8.61728H12.6676V10.335Z" fill="#D8D8D8"/>
<path fill-rule="evenodd" clip-rule="evenodd" d="M19.5386 12.0529H17.8208V10.3351H19.5386V12.0529Z" fill="#BA0000"/>
<path fill-rule="evenodd" clip-rule="evenodd" d="M19.5386 10.335H17.8208V8.61728H19.5386V10.335Z" fill="#BA0000"/>
<path fill-rule="evenodd" clip-rule="evenodd" d="M10.9498 10.335H9.23206V8.61728H10.9498V10.335Z" fill="#666666"/>
<path fill-rule="evenodd" clip-rule="evenodd" d="M16.1031 13.7706H14.3854V12.0528H16.1031V13.7706Z" fill="#919191"/>
<path fill-rule="evenodd" clip-rule="evenodd" d="M12.6676 15.4883H10.9498V13.7706H12.6676V15.4883Z" fill="#BABABA"/>
<path fill-rule="evenodd" clip-rule="evenodd" d="M14.3854 15.4883H12.6676V13.7706H14.3854V15.4883Z" fill="#870000"/>
<path fill-rule="evenodd" clip-rule="evenodd" d="M10.9498 15.4883H9.23206V13.7706H10.9498V15.4883Z" fill="#ADADAD"/>
<path fill-rule="evenodd" clip-rule="evenodd" d="M16.1031 15.4883H14.3854V13.7706H16.1031V15.4883Z" fill="#ADADAD"/>
<path fill-rule="evenodd" clip-rule="evenodd" d="M14.3854 13.7706H12.6676V12.0528H14.3854V13.7706Z" fill="#930000"/>
<path fill-rule="evenodd" clip-rule="evenodd" d="M17.8209 15.4883H16.1031V13.7706H17.8209V15.4883Z" fill="#BFBFBF"/>
<path fill-rule="evenodd" clip-rule="evenodd" d="M17.8209 13.7706H16.1031V12.0528H17.8209V13.7706Z" fill="#D1D1D1"/>
<path fill-rule="evenodd" clip-rule="evenodd" d="M12.6676 13.7706H10.9498V12.0528H12.6676V13.7706Z" fill="#ADADAD"/>
<path fill-rule="evenodd" clip-rule="evenodd" d="M19.5386 15.4883H17.8208V13.7706H19.5386V15.4883Z" fill="#870000"/>
<path fill-rule="evenodd" clip-rule="evenodd" d="M19.5386 13.7706H17.8208V12.0528H19.5386V13.7706Z" fill="#930000"/>
<path fill-rule="evenodd" clip-rule="evenodd" d="M10.9498 13.7706H9.23206V12.0528H10.9498V13.7706Z" fill="#CCCCCC"/>
<path fill-rule="evenodd" clip-rule="evenodd" d="M22.9741 8.61736H21.2563V6.8996H22.9741V8.61736Z" fill="#DB0000"/>
<path fill-rule="evenodd" clip-rule="evenodd" d="M24.6919 8.61736H22.9741V6.8996H24.6919V8.61736Z" fill="#ADADAD"/>
<path fill-rule="evenodd" clip-rule="evenodd" d="M26.4097 10.335H24.692V8.61728H26.4097V10.335Z" fill="#BA0000"/>
<path fill-rule="evenodd" clip-rule="evenodd" d="M26.4097 8.61736H24.692V6.8996H26.4097V8.61736Z" fill="#DB0000"/>
<path fill-rule="evenodd" clip-rule="evenodd" d="M29.8452 8.61736H28.1274V6.8996H29.8452V8.61736Z" fill="#DB0000"/>
<path fill-rule="evenodd" clip-rule="evenodd" d="M22.9741 12.0529H21.2563V10.3351H22.9741V12.0529Z" fill="#BA0000"/>
<path fill-rule="evenodd" clip-rule="evenodd" d="M24.6919 12.0529H22.9741V10.3351H24.6919V12.0529Z" fill="#ADADAD"/>
<path fill-rule="evenodd" clip-rule="evenodd" d="M21.2564 12.0529H19.5387V10.3351H21.2564V12.0529Z" fill="#AD0000"/>
<path fill-rule="evenodd" clip-rule="evenodd" d="M26.4097 12.0529H24.692V10.3351H26.4097V12.0529Z" fill="#AD0000"/>
<path fill-rule="evenodd" clip-rule="evenodd" d="M24.6919 10.335H22.9741V8.61728H24.6919V10.335Z" fill="#D1D1D1"/>
<path fill-rule="evenodd" clip-rule="evenodd" d="M28.1274 8.61736H26.4097V6.8996H28.1274V8.61736Z" fill="#DB0000"/>
<path fill-rule="evenodd" clip-rule="evenodd" d="M28.1274 12.0529H26.4097V10.3351H28.1274V12.0529Z" fill="#BF0000"/>
<path fill-rule="evenodd" clip-rule="evenodd" d="M28.1274 10.335H26.4097V8.61728H28.1274V10.335Z" fill="#BCBCBC"/>
<path fill-rule="evenodd" clip-rule="evenodd" d="M22.9741 10.335H21.2563V8.61728H22.9741V10.335Z" fill="#BA0000"/>
<path fill-rule="evenodd" clip-rule="evenodd" d="M29.8452 12.0529H28.1274V10.3351H29.8452V12.0529Z" fill="#BA0000"/>
<path fill-rule="evenodd" clip-rule="evenodd" d="M29.8452 10.335H28.1274V8.61728H29.8452V10.335Z" fill="#D8D8D8"/>
<path fill-rule="evenodd" clip-rule="evenodd" d="M21.2564 10.335H19.5387V8.61728H21.2564V10.335Z" fill="#CCCCCC"/>
<path fill-rule="evenodd" clip-rule="evenodd" d="M26.4097 13.7706H24.692V12.0528H26.4097V13.7706Z" fill="#930000"/>
<path fill-rule="evenodd" clip-rule="evenodd" d="M22.9741 15.4883H21.2563V13.7706H22.9741V15.4883Z" fill="#870000"/>
<path fill-rule="evenodd" clip-rule="evenodd" d="M24.6919 15.4883H22.9741V13.7706H24.6919V15.4883Z" fill="#ADADAD"/>
<path fill-rule="evenodd" clip-rule="evenodd" d="M21.2564 15.4883H19.5387V13.7706H21.2564V15.4883Z" fill="#ADADAD"/>
<path fill-rule="evenodd" clip-rule="evenodd" d="M26.4097 15.4883H24.692V13.7706H26.4097V15.4883Z" fill="#870000"/>
<path fill-rule="evenodd" clip-rule="evenodd" d="M24.6919 13.7706H22.9741V12.0528H24.6919V13.7706Z" fill="#D1D1D1"/>
<path fill-rule="evenodd" clip-rule="evenodd" d="M28.1274 15.4883H26.4097V13.7706H28.1274V15.4883Z" fill="#870000"/>
<path fill-rule="evenodd" clip-rule="evenodd" d="M28.1274 13.7706H26.4097V12.0528H28.1274V13.7706Z" fill="#727272"/>
<path fill-rule="evenodd" clip-rule="evenodd" d="M31.5629 12.0529H29.8452V10.3351H31.5629V12.0529Z" fill="#ADADAD"/>
<path fill-rule="evenodd" clip-rule="evenodd" d="M31.5629 8.63122H29.8452V6.91345H31.5629V8.63122Z" fill="#727272"/>
<path fill-rule="evenodd" clip-rule="evenodd" d="M10.9429 8.63122H9.22513V6.91345H10.9429V8.63122Z" fill="#727272"/>
<path fill-rule="evenodd" clip-rule="evenodd" d="M31.5629 10.335H29.8452V8.61728H31.5629V10.335Z" fill="#AAAAAA"/>
<path fill-rule="evenodd" clip-rule="evenodd" d="M31.5629 15.4883H29.8452V13.7706H31.5629V15.4883Z" fill="#ADADAD"/>
<path fill-rule="evenodd" clip-rule="evenodd" d="M31.5629 13.7706H29.8452V12.0528H31.5629V13.7706Z" fill="#D1D1D1"/>
<path fill-rule="evenodd" clip-rule="evenodd" d="M22.9741 13.7706H21.2563V12.0528H22.9741V13.7706Z" fill="#930000"/>
<path fill-rule="evenodd" clip-rule="evenodd" d="M29.8452 15.4883H28.1274V13.7706H29.8452V15.4883Z" fill="#870000"/>
<path fill-rule="evenodd" clip-rule="evenodd" d="M29.8452 13.7706H28.1274V12.0528H29.8452V13.7706Z" fill="#ADADAD"/>
<path fill-rule="evenodd" clip-rule="evenodd" d="M21.2564 13.7706H19.5387V12.0528H21.2564V13.7706Z" fill="#CCCCCC"/>
</svg>
